<?xml version="1.0" encoding="UTF-8" standalone="no"?>
<!DOCTYPE svg PUBLIC "-//W3C//DTD SVG 1.1//EN" "http://www.w3.org/Graphics/SVG/1.1/DTD/svg11.dtd">
<svg width="100%" height="100%" viewBox="0 0 9167 9167" version="1.1" xmlns="http://www.w3.org/2000/svg" xmlns:xlink="http://www.w3.org/1999/xlink" xml:space="preserve" xmlns:serif="http://www.serif.com/" style="fill-rule:evenodd;clip-rule:evenodd;stroke-linejoin:round;stroke-miterlimit:2;">
    <g transform="matrix(4.16667,0,0,4.16667,-214.539,-253.546)">
        <g transform="matrix(2.20654,0,0,2.20654,-144.997,-2386.4)">
            <path d="M1045.45,1612.24C1045.45,1740.6 992.728,1856.64 907.777,1939.9C907.249,1940.41 906.71,1940.94 906.17,1941.46C899.202,1948.22 892.017,1954.77 884.617,1961.09C870.033,1973.58 854.657,1985.15 838.574,1995.73C766.276,2043.32 679.717,2071 586.694,2071C493.671,2071 407.113,2043.32 334.814,1995.73C318.731,1985.15 303.355,1973.58 288.771,1961.09C281.371,1954.77 274.186,1948.22 267.218,1941.46C266.678,1940.94 266.139,1940.41 265.611,1939.9C180.66,1856.64 127.935,1740.6 127.935,1612.24C127.935,1358.87 333.327,1153.48 586.694,1153.48C840.061,1153.48 1045.45,1358.87 1045.45,1612.24Z" style="fill:rgb(215,217,216);fill-rule:nonzero;"/>
        </g>
        <g transform="matrix(2.20654,0,0,2.20654,-144.997,-2386.4)">
            <path d="M906.17,1941.46C899.202,1948.22 892.017,1954.77 884.617,1961.09C870.033,1973.58 854.657,1985.15 838.574,1995.73C766.276,2043.32 679.717,2071 586.694,2071C493.671,2071 407.113,2043.32 334.814,1995.73C318.731,1985.15 303.355,1973.58 288.771,1961.09C281.371,1954.77 274.186,1948.22 267.218,1941.46C284.513,1887.88 326.791,1844.45 382.561,1826.84L518.354,1783.97L518.354,1761.57C501.335,1751.46 486.127,1739.9 473.582,1731.43C450.254,1715.7 434.554,1691.03 429.913,1663.27L422.668,1619.95C399.988,1619.95 381.662,1601.63 381.662,1578.95C381.662,1562.08 391.785,1547.63 406.297,1541.33C393.62,1511.6 384.312,1480.09 378.723,1447.78C375.173,1427.31 373.17,1405.72 379.179,1385.98C385.176,1366.24 401.08,1348.92 419.838,1348.58L422.296,1348.75C434.134,1330.26 452.641,1318.08 472.058,1311.04C491.476,1303.99 511.973,1301.6 532.291,1299.27C540.231,1298.35 548.206,1297.43 556.206,1296.63C593.099,1293.08 633.266,1292.21 670.986,1302.72C708.718,1313.23 745.167,1336.79 764.381,1374.35C779.637,1404.15 782.731,1440.1 778.893,1474.11C776.35,1496.68 770.941,1518.65 764.596,1540.34C780.428,1546.01 791.714,1561.14 791.714,1578.95C791.714,1601.63 773.4,1619.95 750.708,1619.95L743.464,1663.27C738.822,1691.03 723.134,1715.7 699.807,1731.43C687.249,1739.9 672.053,1751.46 655.034,1761.57L655.034,1783.97L790.815,1826.84C846.597,1844.45 888.875,1887.88 906.17,1941.46Z" style="fill:rgb(146,150,151);fill-rule:nonzero;"/>
        </g>
    </g>
</svg>
