<?xml version="1.0" encoding="UTF-8" standalone="no"?>
<!DOCTYPE svg PUBLIC "-//W3C//DTD SVG 1.1//EN" "http://www.w3.org/Graphics/SVG/1.1/DTD/svg11.dtd">
<svg width="100%" height="100%" viewBox="0 0 1775 1775" version="1.1" xmlns="http://www.w3.org/2000/svg" xmlns:xlink="http://www.w3.org/1999/xlink" xml:space="preserve" xmlns:serif="http://www.serif.com/" style="fill-rule:evenodd;clip-rule:evenodd;stroke-linejoin:round;stroke-miterlimit:2;">
    <g transform="matrix(4.16667,0,0,4.16667,0,0)">
        <rect x="0" y="0.803" width="425.197" height="425.197" style="fill:rgb(255,214,26);fill-rule:nonzero;"/>
        <path d="M63.02,365.92C63.02,375.557 130.177,383.368 213.02,383.368C295.863,383.368 363.02,375.557 363.02,365.92C363.02,356.283 295.863,348.472 213.02,348.472C130.177,348.472 63.02,356.283 63.02,365.92Z" style="fill:rgb(252,175,38);fill-rule:nonzero;"/>
        <path d="M160.774,170.002C159.528,163.725 153.553,157.881 145.352,159.673C137.161,161.47 137.132,169.112 138.378,175.395C138.448,175.719 142.479,192.697 144.85,196.265C147.217,199.843 150.654,206.632 156.418,204.698C160.229,203.418 162.474,196.63 163.376,191.729C164.276,186.828 160.774,170.002 160.774,170.002Z" style="fill:rgb(251,182,136);fill-rule:nonzero;"/>
        <path d="M265.1,169.747C266.347,163.469 272.32,157.627 280.521,159.42C288.72,161.214 289.522,169.079 288.28,175.355C288.211,175.688 283.854,191.399 281.81,196.236C280.128,200.22 275.549,207.234 269.598,204.781C265.878,203.246 263.4,196.374 262.498,191.473C261.597,186.574 265.1,169.747 265.1,169.747Z" style="fill:rgb(251,182,136);fill-rule:nonzero;"/>
        <path d="M85.461,362.008L339.737,362.008C339.737,362.008 334.726,299.594 326.384,290.24C318.038,280.888 254.474,259.978 254.474,259.978L171.393,259.737C171.393,259.737 104.509,279.311 99.94,290.24C95.371,301.169 85.461,362.008 85.461,362.008Z" style="fill:rgb(39,160,171);fill-rule:nonzero;"/>
        <path d="M185.794,259.778L184.416,259.775L184.415,259.775L185.793,259.778L185.794,259.778Z" style="fill:rgb(189,171,38);fill-rule:nonzero;"/>
        <path d="M119.004,362.008L85.461,362.008C85.461,362.008 95.371,301.169 99.94,290.24C104.509,279.311 171.393,259.737 171.393,259.737C171.393,259.737 173.008,263.727 175.629,269.21C157.023,275.736 135.976,284.274 133.481,290.24C128.914,301.169 119.004,362.008 119.004,362.008ZM190.974,264.06L184.416,259.775L185.794,259.778C187.494,261.011 189.504,262.413 191.688,263.831C191.452,263.906 191.214,263.983 190.974,264.06Z" style="fill:rgb(14,135,146);fill-rule:nonzero;"/>
        <path d="M180.38,255.652C180.38,255.652 201.325,272.826 213.073,272.826C224.818,272.826 245.758,255.652 245.758,255.652C245.758,255.652 236.895,245.336 243.005,231.784C249.113,218.236 174.88,219.345 183.51,231.784C192.136,244.225 180.38,255.652 180.38,255.652Z" style="fill:rgb(213,144,107);fill-rule:nonzero;"/>
        <path d="M202.142,269.73C191.549,264.789 180.391,255.661 180.38,255.652C180.38,255.652 185.126,251.039 186.374,244.484C194.86,249.24 204.186,252.271 213.069,252.304L213.514,252.304C223.234,252.263 232.528,249.609 240.765,245.105C219.84,257.056 216.869,253.826 211.871,257.469C206.842,261.133 203.704,265.436 202.142,269.73Z" style="fill:rgb(190,120,90);fill-rule:nonzero;"/>
        <path d="M254.474,259.978L242.527,259.944L249.031,255.85L254.474,259.978ZM184.415,259.775L171.393,259.737L176.247,254.436L184.415,259.775Z" style="fill:rgb(189,171,38);fill-rule:nonzero;"/>
        <path d="M226.786,302.108C224.985,302.108 214.387,283.683 213.056,283.683C210.372,283.683 202.865,300.091 198.884,300.091C198.728,300.091 198.578,300.066 198.434,300.014C190.064,296.997 180.851,280.139 175.629,269.21C181.139,267.278 186.438,265.521 190.974,264.06L213.056,278.492L242.527,259.944L254.474,259.978C254.474,259.978 239.711,299.167 226.837,302.103C226.821,302.106 226.804,302.108 226.786,302.108Z" style="fill:rgb(14,135,146);fill-rule:nonzero;"/>
        <path d="M184.416,259.775L171.393,259.737L184.415,259.775L184.416,259.775Z" style="fill:rgb(142,140,37);fill-rule:nonzero;"/>
        <path d="M175.629,269.21C173.008,263.727 171.393,259.737 171.393,259.737L184.416,259.775L190.974,264.06C186.438,265.521 181.139,267.278 175.629,269.21Z" style="fill:rgb(0,115,125);fill-rule:nonzero;"/>
        <path d="M273.104,122.773C273.104,95.535 256.229,68.205 211.552,68.205C166.874,68.205 150.652,98.112 150.652,125.353C150.652,126.783 150.515,200.853 159.19,217.862C167.864,234.865 191.743,252.224 213.069,252.304C236.391,252.396 257.347,237.415 267.14,217.862C276.933,198.302 273.104,122.773 273.104,122.773Z" style="fill:rgb(251,182,136);fill-rule:nonzero;"/>
        <path d="M265.151,172.388C237.314,172.388 209.086,134.712 194.01,130.019C193.442,129.843 192.865,129.761 192.281,129.761C188.335,129.761 184.048,133.513 179.749,137.264C177.993,138.797 176.234,140.329 174.496,141.606C179.519,137.702 184.868,132.725 188.638,124.762C189.112,124.741 189.587,124.731 190.056,124.731C217.734,124.731 235.639,160.042 266.355,162.007C265.676,165.979 265.477,169.425 265.579,172.385C265.435,172.387 265.295,172.388 265.151,172.388Z" style="fill:rgb(231,162,120);fill-rule:nonzero;"/>
        <path d="M213.6,252.303L213.604,252.303L213.6,252.303ZM213.656,252.303L213.686,252.303L213.656,252.303ZM213.713,252.303C225.568,252.206 236.718,248.133 246.143,241.651C239.079,244.758 231.394,246.558 223.417,246.558L223.192,246.558C201.868,246.478 177.987,229.122 169.314,212.113C164.514,202.7 162.412,175.813 161.492,153.432C162.906,150.485 165.724,148.151 169.129,145.611C170.167,166.611 172.3,189.774 176.683,198.368C185.358,215.374 209.235,232.733 230.562,232.814L230.768,232.814C242.956,232.814 254.483,228.686 264.106,221.96C264.449,221.798 264.785,221.622 265.126,221.46C265.218,221.305 265.336,221.166 265.427,221.011C255.141,238.824 235.506,252.13 213.713,252.303Z" style="fill:rgb(231,162,120);fill-rule:nonzero;"/>
        <path d="M263.892,222.058C264.401,221.704 264.927,221.376 265.427,221.011C264.99,221.333 264.55,221.649 264.106,221.96C264.035,221.993 263.963,222.026 263.892,222.058Z" style="fill:rgb(231,162,120);fill-rule:nonzero;"/>
        <path d="M264.106,221.96C264.55,221.649 264.99,221.333 265.427,221.011C265.336,221.166 265.218,221.305 265.126,221.46C264.785,221.622 264.449,221.798 264.106,221.96Z" style="fill:rgb(216,147,109);fill-rule:nonzero;"/>
        <path d="M213.475,252.304L213.069,252.304C204.186,252.271 194.86,249.24 186.374,244.484C194.86,249.24 204.186,252.271 213.069,252.304L213.475,252.304ZM213.489,252.304L213.514,252.304L213.489,252.304Z" style="fill:rgb(177,108,80);fill-rule:nonzero;"/>
        <path d="M213.514,252.304L213.069,252.304L213.28,252.304C213.387,252.304 213.494,252.304 213.6,252.303C213.572,252.304 213.543,252.304 213.514,252.304ZM213.604,252.303L213.656,252.303L213.604,252.303ZM213.686,252.303L213.713,252.303L213.686,252.303Z" style="fill:rgb(231,162,120);fill-rule:nonzero;"/>
        <path d="M213.28,252.304L213.069,252.304C191.743,252.224 167.864,234.865 159.19,217.862C154.466,208.599 152.355,182.413 151.412,160.253C151.413,160.253 151.413,160.253 151.413,160.254C153.587,184.033 158.673,184.38 158.968,184.38L158.981,184.38C158.981,184.38 159.473,167.746 160.56,156.753C160.679,155.55 161.001,154.454 161.492,153.432C162.412,175.813 164.514,202.7 169.314,212.113C177.987,229.122 201.868,246.478 223.192,246.558L223.417,246.558C231.394,246.558 239.079,244.758 246.143,241.651C236.718,248.133 225.568,252.206 213.713,252.303L213.6,252.303C213.494,252.304 213.387,252.304 213.28,252.304Z" style="fill:rgb(216,147,109);fill-rule:nonzero;"/>
        <path d="M283.099,116.277C277.601,86.29 253.111,64.549 213.069,64.797C173.144,65.047 146.901,89.518 141.655,117.275C139.406,129.162 137.669,151.762 138.594,165.231C145.352,159.673 148.14,158.95 151.413,160.254C153.652,184.747 158.981,184.38 158.981,184.38C158.981,184.38 159.473,167.746 160.56,156.753C161.648,145.764 179.642,143.767 188.638,124.762C217.128,123.523 235.118,160.009 266.355,162.007C263.266,180.065 270.106,187.249 270.106,187.249C270.106,187.249 270.831,172.331 273.352,165.256C275.549,159.092 282.101,159.092 285.34,161.765C286.895,150.547 286.137,132.844 283.099,116.277Z" style="fill:rgb(54,27,19);fill-rule:nonzero;"/>
        <path d="M285.34,161.765C284.403,160.997 283.185,160.483 281.884,160.239C281.884,160.226 281.884,160.214 281.885,160.201C283.19,160.443 284.403,160.992 285.34,161.765L285.34,161.761L285.34,161.765Z" style="fill:rgb(252,197,159);fill-rule:nonzero;"/>
        <path d="M192.677,67.214C192.688,67.211 192.698,67.208 192.71,67.206C192.699,67.208 192.687,67.211 192.677,67.214ZM192.715,67.204C199.019,65.687 205.818,64.842 213.069,64.797C205.82,64.842 199.018,65.687 192.715,67.204Z" style="fill:rgb(255,221,51);fill-rule:nonzero;"/>
        <path d="M285.34,161.765C284.403,160.992 283.19,160.443 281.885,160.201C282.126,149.826 281.136,137.066 278.905,124.9C273.437,95.079 249.194,73.417 209.549,73.417C209.325,73.417 209.099,73.417 208.874,73.419C178.268,73.608 155.748,88.054 144.518,107.283C151.663,88.747 168.534,73.039 192.677,67.214C192.687,67.211 192.699,67.208 192.71,67.206C192.711,67.205 192.713,67.205 192.715,67.204C199.018,65.687 205.82,64.842 213.069,64.797C213.297,64.796 213.522,64.795 213.748,64.795C253.387,64.795 277.632,86.461 283.099,116.277C285.113,127.262 286.125,138.747 286.125,148.51C286.125,153.468 285.864,157.982 285.34,161.761L285.34,161.765Z" style="fill:rgb(80,50,39);fill-rule:nonzero;"/>
        <path d="M158.968,184.38C158.673,184.38 153.587,184.033 151.413,160.254C150.527,159.901 149.676,159.696 148.772,159.696C146.339,159.696 143.522,161.178 138.594,165.231C138.278,160.626 138.29,154.932 138.511,148.991C138.542,149.645 138.552,150.368 138.594,150.984C150.652,147.431 179.642,129.522 188.638,110.515C189.027,110.498 189.412,110.49 189.8,110.49C217.833,110.49 243.422,154.13 265.967,161.955C235.497,159.711 217.612,124.731 190.058,124.731C189.588,124.731 189.114,124.741 188.638,124.762C179.642,143.767 161.648,145.764 160.56,156.753C159.473,167.746 158.981,184.38 158.981,184.38L158.968,184.38Z" style="fill:rgb(35,6,1);fill-rule:nonzero;"/>
        <path d="M176.247,245.94L171.393,259.737C171.393,259.737 185.865,286.988 198.434,291.518C202.271,292.903 210.268,275.189 213.056,275.189C214.4,275.189 225.196,293.983 226.837,293.607C239.711,290.671 254.474,259.978 254.474,259.978L249.031,247.354L213.056,269.996L176.247,245.94Z" style="fill:white;fill-rule:nonzero;"/>
    </g>
</svg>
